ply
format ascii 1.0 
element vertex 510
property float x
property float y
property float z
element face 985
property list uchar int vertex_indices
end_header
12.28719904183516 -48.60798557773455 36.088533434040286
13.541996357618952 -48.92137555382119 41.3870957802681
21.079781398289075 -48.32106070565566 40.68541599203124
18.671303727181705 -48.7895138911404 34.5329651293269
3.3947735836981496 -48.73105134282376 21.797564713314024
11.981247486040012 -49.2225003308689 33.70375903484666
16.913086368341315 -49.20325585375383 27.56258538607819
17.826646225450215 -49.65873946845973 20.65196996660483
23.236013536426228 -48.46498790991212 23.251814244131047
23.040749054390375 -48.22169786894764 29.01697736422942
29.678770459522987 -46.46720345084926 26.070260284953648
28.471193051584237 -46.98906724023523 19.15931835893268
18.250946056509633 -50.03037791374527 14.041830711405776
23.74972535215152 -48.99464465702572 16.3846393153757
27.661911436125415 -47.75963563533674 14.47750354071978
28.548929179048454 -47.90878330015944 10.081685957141527
32.96061020355836 -45.50927637913041 14.957298842253618
35.638054610859 -44.31742481563778 20.755151237856413
39.72100099006808 -42.455546072402406 17.141383176303727
39.28734338237444 -41.236113839565725 11.177625754537626
45.28592144651375 -38.85760167206457 17.410218350989098
50.18840878630374 -36.074861218038414 22.26229809364876
56.97748908223613 -26.950226615305358 20.20566995927284
51.39225677573301 -29.822364041930825 13.881239556246449
60.78861841712461 -16.882802174995984 15.147491802305593
63.025138347789294 -18.34318434850008 24.3393235819973
67.0973311867963 -5.760192250983211 20.97822319745592
65.06397374803724 -6.67725371163828 14.648635331798951
66.1144298286851 0.5063950318586662 13.487512066799978
68.70220550153667 2.295336240626495 21.472603322942806
68.26084078608224 6.286359156431097 18.49149741726558
66.71927067985446 6.859840368477842 12.494906208410438
66.97081503536751 14.286327685738007 11.601170620334031
68.62584740144302 12.83192681499705 18.847916858062977
66.3366160740868 23.98407322905028 17.521020462563698
63.7180660753411 24.079924640244105 9.974475879753415
54.05002750169307 35.02995718007302 6.833240750680442
60.69902498443992 33.551029209126135 13.350154142579267
53.217168984546525 42.473671743326264 14.161999929724946
47.738534467549776 43.61515678752406 9.068594079963969
40.31713587217112 43.53589134877344 2.946676163301418
42.83289250677181 45.935590530893265 8.79758132259014
36.979514724168155 48.074294654841665 10.456176861038369
31.67728689634456 47.99409756923117 5.50170502905967
28.16242992735018 48.57361360729538 1.2775417101140105
27.206125468073964 49.26396264590264 5.401963361852427
23.273751045887153 51.02027451119133 7.208755685730735
17.59586787458991 51.49520594035296 4.68614788405828
28.14925147252982 50.332734015141206 10.690532107008064
31.602443411237342 51.458949346850225 16.54332335744385
24.388987775516362 53.29460910269895 17.51861110155881
22.20844022286603 52.61903014641841 13.096716903733387
16.84354851959189 53.46253427230403 12.278066506975545
18.912667422592396 54.55342723240422 17.50459668860426
12.866517210359385 55.75839800718993 20.08796060868454
2.3152828364228317 51.84214821342785 11.80166020365608
18.661644200317376 55.9625137303958 23.371127516412624
22.023888511284778 56.910114858070024 29.155096921319704
14.119095584485336 57.85969906968487 29.583871329737157
12.686586431814334 57.164603078411105 25.576464859415143
-17.225883451597543 48.67567884062094 18.170995426038886
-15.02314785719081 51.68821478028005 24.56603183936598
-25.98818784571517 47.86139607990633 26.19920936188185
-14.899315045250395 53.26972074468344 29.81269774675895
-12.922621158093284 54.38072118322269 34.90985309786407
-18.7802191775225 51.94147120320524 36.929576582654086
-20.970129319361625 50.814632300893834 31.787208037370128
-31.755600304422007 44.13964520244031 21.846989094219353
-32.403733369981936 44.5395373758854 28.05345740471116
-35.8166989792729 41.909027100662925 29.149243601446358
-38.02369382759788 40.69181231146098 24.141531254685358
-27.50411936387124 47.47798782123451 31.99279838518014
-23.89224017850133 49.11686747632141 39.33832225938277
-29.625834090850972 45.502440258760394 42.297223408745275
-32.11758374207119 44.208517158667284 35.38029081745255
-41.00278128487022 37.11138033045656 27.73808930185527
-38.26308308468212 39.14305713555889 32.98672302645511
-41.42721127303149 35.057924750150214 37.93522868060222
-44.43330816265053 30.091338248167514 35.08247098063127
-37.4349144405826 39.777484099385966 37.832282634529626
-35.597719394224086 40.57619651507671 43.342971694874606
-41.10503391498078 33.43219513025788 47.31354063802402
-40.52679564190079 35.67899091582587 42.04962107522701
-44.68605126037483 27.868134290588777 45.341567661526796
-43.638723944200095 26.463465376109234 54.061620861835564
-46.757906978021886 18.132080523113096 55.43315754001214
-47.78495333748354 19.75435004777882 44.34509901748432
-49.675023485203155 10.199072871601835 50.30893900207438
-47.91382587405812 10.776481600316806 57.038321242890405
-48.12691253303874 3.9568019105904555 58.31576528473567
-50.261981391968746 3.194745038749083 52.03011196501514
-50.01794246165439 -3.70450188782461 51.24935650517861
-47.66990797855921 -3.215141105221547 58.39363419158441
-45.7620881519509 -12.46064251605426 57.15562618606586
-48.08346952018822 -13.488043660342024 46.97609938678345
-41.75992530200288 -25.689128496153188 50.221652582691405
-42.564212085734326 -21.79994310540728 54.86008722434529
-36.795493057085494 -30.584693056943998 53.55095690153918
-38.31094908290952 -31.4697227850948 47.1670119722081
-43.46027631178563 -25.38684685180049 39.32668699421703
-42.44513470804956 -26.384228347558203 45.076473930298995
-38.461969831305616 -32.52990670617023 41.36157369843742
-38.57499976017225 -33.4869270040419 36.68438669180204
-32.48781316654123 -36.443892563837515 45.40356580688231
-30.870965391293907 -35.437233485141824 53.45286319520895
-25.555606987592174 -39.052743613270145 49.920547705982464
-26.753022336796803 -40.21195915573912 42.85230281879906
-37.45388863830819 -34.84155795475116 32.88323730389857
-35.1318481181551 -36.33930618773571 37.85230924310521
-30.725429981028388 -39.38027105944778 36.593270262496226
-32.40378176042446 -39.64859981505336 30.533240199102867
-20.75468486646613 -42.441596998741076 44.013406948101476
-19.455473065037125 -41.425804950780254 50.49175004879281
-12.841397423360386 -44.088176988689845 48.0863875197735
-15.050488106603556 -44.558830698489764 42.48282144097701
-26.446616744254165 -42.254038425557795 30.22922549210778
-25.308799167369195 -41.79796005043882 38.15193654806849
-19.151249302676508 -43.915850540764644 37.45803882534839
-14.201311663449456 -45.41575674159704 28.042080426057012
10.134676669707751 -48.2884640401581 48.83914699041215
12.487399532196495 -47.07145194836073 56.20190038337101
19.683103036073668 -47.54596639579469 52.95241121416048
17.156544859049394 -48.5248859138409 46.732744360354324
25.73464933174236 -47.553582047963594 33.43992122007771
29.156184404729714 -46.771696685677924 39.20610830817554
33.20738193871707 -45.61275973826605 31.92611646366575
37.97495494870954 -43.783576568766726 26.402433795730126
39.757864503836295 -43.47841071739802 31.527359668765722
45.57007886332066 -40.64436564549895 28.383935192620623
42.91881698044004 -41.298482074311025 21.99982784381104
52.10164160286368 -35.801969178808115 28.064107801661407
51.492957223753095 -36.394520770894715 33.54773930938584
58.91834333844605 -26.89964120093816 30.702819794790166
56.16194944678897 -30.229730163903948 25.011829326019434
65.07331451760074 -16.442165319328414 30.230466142151847
64.14161945199046 -16.333027714898 37.366322506656736
68.23330884658051 -4.447045408828252 38.07379831951918
68.14009959484538 -7.428804869202871 30.37964212034194
69.64026459268547 1.6130066860941168 28.216622130518914
69.3372064756641 2.119598299622031 35.94516345278494
69.69789727695378 9.166504037852894 32.848760142550134
69.6737797633651 8.302237276230969 25.093480486867037
68.90934306197138 17.72991026596452 26.80413707864937
68.4405316817794 16.394319268692307 35.29492182798766
65.19130241341219 27.546025849071352 32.60315459876887
65.74328934564836 28.349074768950544 23.90412533050052
59.95337667428792 37.18501458411289 19.471119060014033
61.59954995765165 35.96616158443569 25.91542889992126
54.69422048930516 44.14817970444064 25.98462924342671
52.769427999693214 45.15445138592121 20.184473243627927
44.57237139224621 47.18994694995321 13.908607530739106
48.011877782011126 47.59801576036429 18.67649601075937
41.229827522570325 50.769093558680794 21.33814015237565
37.995750315623255 50.02809080738795 16.540850033340863
33.80545792662009 52.88159408008169 21.76599641080572
35.80527805844806 53.89296167017059 26.45232532631872
29.749306520207604 55.535971724369766 28.11378593981624
26.699773178881124 54.498949609853014 22.752139863581494
17.450517859293935 58.829900837640395 35.253280267643326
20.648600760881568 59.309470973027686 40.14552726227396
13.045449538604988 60.43987076703519 42.6849916419768
9.681495360502367 59.303194001278676 35.027034874305954
4.736322677779597 59.891138605970525 39.23576081502496
5.060657573794533 60.757691973212815 46.06944115801258
-0.8415600907320524 59.7013571106054 48.2188235841911
-1.3344918532239518 59.0856595406951 42.33526767590922
-8.11367280273929 56.62026996713942 40.28603094467363
-7.987625566285811 56.902778089848695 46.95935776326042
-13.86661870446617 54.23150349566573 48.09663219769725
-15.197054691560405 53.572531774011395 42.25454777966311
-19.58837391835281 51.08844257351885 48.479247034832376
-25.62533023793761 47.19815379744705 51.89611140657808
-26.059504747408106 47.48192557190743 46.078357571145226
-31.07897808133999 43.75887256131209 48.126950954072726
-31.587547443545716 42.14554015302909 54.429401942308125
-36.452016647522115 35.61740340372443 58.15054959093165
-37.64025129216071 36.21375299224805 51.885377041078144
-40.7801054020097 28.9358604185361 58.87460366754277
-37.1812985802303 29.418387796820625 66.16150768948046
-39.802111915622845 19.572347782123124 70.67533165330056
-43.41427837566375 19.961466457056574 63.15017582063946
-45.72072828663439 12.463408522304263 62.88615062547932
-41.55392704256133 12.206469999796369 70.07871057641742
-40.14698679204561 5.272798623012671 72.1903888138901
-44.774749528508394 5.948304280648603 65.29905008074083
-44.54452340726098 -2.2306085453954108 64.73696709441816
-41.161669367916005 -0.19417760630317993 70.16477073264976
-37.691918440304 -10.85299888050279 71.00899292863548
-42.850900024750096 -11.978404015452718 63.61968175560459
-39.87737335468961 -22.57875865990461 60.09739256257492
-36.87593033986078 -22.014611572043858 65.68197824293718
-31.66278471000398 -28.67249440552846 66.01315495102598
-33.07016278488581 -30.827670529415307 60.19526450400461
-26.64984170323364 -36.18943101846697 57.42184162620539
-26.8712836839749 -33.383699822177846 63.75697236325829
-20.210065075940363 -37.666360895025356 61.444279845877844
-21.760093000791564 -39.18681623215657 55.105449937949444
-15.188319436396233 -41.57575556343205 55.691818778246294
-12.9611140686937 -40.38133686071708 62.256095900781894
-7.782530837143579 -43.031704349939154 59.18258590117678
-8.50133550545959 -44.252313075047134 53.619436655851786
-1.8691349120461744 -45.36726757440455 55.89242292501749
-1.2303132674380919 -44.01520699001828 61.22117996836666
5.966861134097497 -45.49979897263886 59.77727032078522
4.1205811305064834 -47.03906923129348 53.09266290229682
20.85854871265462 -45.654317597537585 59.8152117570804
21.583994414664048 -43.17935533086795 65.3056206219943
26.717389893437385 -42.52516688215472 64.06282835749023
27.00880409254583 -45.149586353846345 57.519692380110996
25.47777421543372 -47.24923890279061 47.38546503478427
26.492439586570462 -46.59476489922069 52.83174278820483
32.89844462165132 -43.76869675132546 53.463024969993775
33.86645008662804 -45.05592628542765 44.90906370908687
37.014709299057785 -44.41009776485751 37.424785702427066
41.389884625483106 -41.91828668599791 42.770564683668056
44.46440533361117 -41.226883195245094 35.6158044493644
50.02911937947782 -36.24478242782673 41.179606579818945
50.9939131519413 -33.50165515890542 47.1646032292391
56.818191876926 -26.799334331024017 44.645434192456186
57.01628981881559 -29.458430133452083 37.32433956434672
61.763214911818686 -16.29732508250056 46.31312237162615
61.16440088197198 -10.859658727879928 52.583801525686006
63.09174114309576 -3.460788559446132 53.03735985170234
65.52684762263382 -6.077958545690636 45.39096454768901
67.4303141689127 2.835587623013301 43.48694963810064
64.09954553758048 3.1373850930470106 52.23982525836584
64.93936164319325 11.59222951216558 49.150397389273834
68.09461293943312 10.054750130384729 40.39406080720776
65.81167046938273 19.78577070680789 41.85927631955513
62.80338911870042 20.49452750686401 50.516939664958294
61.692706397058544 28.27655357759841 45.676010925658254
63.9937520781494 27.707653928178477 39.498048125050985
58.42489841866485 39.89294030888664 31.633955665308218
59.32438241336706 36.220394763704626 39.79676278492339
52.96876506595231 45.285528061570105 37.288259589280415
53.672686672025094 45.55199780154305 31.526849735480347
47.49338990090001 48.98409346758175 24.360379396542058
48.115055646754485 49.307520674283275 31.575094347968587
41.799762951578685 52.92818714475228 34.220834534593436
41.179892997181206 52.51309889337934 28.483808121527304
35.14548073369513 55.19859671869923 33.33213801930029
32.714390510782785 56.09525183699805 42.11190839480105
29.13137790234709 57.44334446686929 40.22910405004711
26.687788697891847 57.49010341499804 36.16536453939585
26.127861320032945 58.1886908639425 43.36594299762318
28.457683092760114 56.61838821541969 50.445701399100884
22.382589892152875 58.83833947958439 50.72726735961444
19.964354969303194 59.87451010584643 45.06467120465805
16.739282490743427 60.44693738865648 49.652971900042985
17.71207414223678 59.298356584266514 56.763084585213576
10.047168738627937 60.79680901516094 54.2876613713458
2.3462178970085965 60.618961571373156 53.483080363174196
3.9200189532991843 60.57311311976022 59.74754295703873
-0.5893558851733403 59.61939202317401 59.78647596746181
-5.030606777836013 58.11925547039288 54.86311915286566
-12.833575458767577 54.55764883771479 52.761244794039975
-11.849246689983197 54.52760059948424 59.23833598123116
-18.446315661114077 50.23963227732879 61.75492369246196
-19.08801810070778 50.8290874770001 55.74514394738249
-25.541970099660997 46.28492068967542 57.89642435476693
-24.939731211600538 45.19764296802143 63.77176176415544
-29.578429543299613 38.92080629750258 67.54753736640389
-31.59346052677022 39.99607080506297 60.867686889731594
-31.56569021727406 32.233869797935476 73.10678391019991
-27.999627611344607 29.390130892383368 79.95241859248627
-29.210128707470417 21.90922581751824 83.02086660716996
-34.54803338036446 23.074959539270644 76.24938638346174
-37.21095415057583 15.494340889891564 75.91043351394816
-31.218712877628043 14.612048766428352 82.486926703431
-29.181533570188556 6.870043384417741 84.48653413256001
-35.37901757814563 7.991197526033345 78.11767542688938
-35.48358858039791 -1.6635471827076778 76.47422350602658
-29.37714358041707 0.1908462497332497 83.06321305990714
-28.611253268453652 -8.894645493440212 81.21184349382051
-33.185827288449886 -9.497621936331829 76.81663146548738
-31.94677323981638 -23.352810000978923 70.75716552240317
-29.17513126331263 -17.944141546079834 77.03991109052991
-25.078945730355088 -26.91449056635406 74.8803854164345
-26.35807278948127 -30.355941853786856 69.4274495462108
-21.423158191833423 -34.58101719841713 67.29504364816492
-18.362903667056056 -32.925792595139 72.78735714910229
-10.935350932075064 -36.54157682439806 72.09621304095462
-14.908983473016008 -37.47454435187468 67.4569997789318
-5.347031828436936 -40.38721404045436 67.412591830441
-1.2705678626315269 -38.33797157613629 72.95146639548139
3.7804148132663755 -39.98359968332795 71.06688699677007
2.687070989056071 -43.12759542191679 65.00911057804701
9.547813489794533 -42.99357935540395 66.40844932111789
10.764701351523852 -40.00082481272531 71.7735195541919
17.061213206802343 -41.11447587264741 69.54306466923182
15.03699764625642 -44.85440291183757 62.70296211217269
24.096332277162784 -39.66164454131268 69.93021827888458
25.70229048486861 -34.29477007469762 75.66949272698689
30.718875446951134 -33.367925862963226 73.81600334232407
29.469333590953017 -37.98202281475302 69.20448040913963
32.19789127448972 -40.87747041692336 62.16372673847223
34.6656851416994 -35.05710939244776 68.60398742221764
38.457296648066105 -33.7438897657281 66.67777754212557
38.93673293396287 -37.15374186307734 60.30709243865724
38.225744256677174 -42.484678254396655 48.854919226422226
39.54181668280388 -40.11892212032427 53.389802484025374
43.69404420552959 -36.43668628256573 54.51602571188652
44.609793908187115 -38.26556996778201 48.5894752622413
48.08410155669232 -34.07943176511614 51.77422029033998
46.84837468259208 -31.731164090643283 57.43955051694434
54.47002106234636 -22.547326175938196 55.01289027468543
52.15854517066421 -30.083070247653794 51.04042142064029
56.30032717225242 -12.292578822225845 60.8012367262291
53.18690947621212 -10.229337284146503 67.61482715170247
55.94514791856675 -4.24920927267248 66.4614667170644
59.7341763689104 -4.701538498140057 59.35000969221122
61.25973639581531 10.30790346139879 58.760055418653856
57.03417164190256 11.88754087717366 67.0596673304799
58.174656660486676 17.57490534799916 63.43386317608283
61.808108504619995 16.11340086780387 55.981693054018386
59.64073018662008 21.88419047059379 57.89870886086506
57.17817538854392 22.72029916515743 63.06092422744741
55.341671664454 29.117035655160667 60.933120249982075
59.38192340339158 27.54741933081654 53.15981741022486
53.59906402149629 43.20057363156078 44.27873914254558
54.700232705173704 37.441536195273784 51.44893306518756
49.14966014841373 45.694824156488714 49.76051783638242
49.597783289099645 47.38904467704638 43.52199393352586
46.160560179207025 50.34805630735275 38.809681233233135
44.06169544090179 50.295204859058515 46.400515152595815
38.509526038622255 53.44484893403082 45.757962597261034
39.930904456120686 53.58750125131053 39.73234294184788
39.06631986211952 51.47312746759229 52.19976626646947
38.79719655293473 49.88134905323791 57.36479643872892
34.70915325021571 51.514128817321094 58.56502945756657
34.1062817446668 54.22104598153755 50.74874182904783
29.956959577903756 54.50382683920065 56.63668649719564
29.041474151114418 52.15565151023268 63.927470165566824
23.99586139892947 56.47408992163584 58.739382785749164
19.170567508374162 57.51585236629169 62.37426746909711
21.59960891913014 53.479953590359855 68.78082134603791
15.279632936335048 55.37596657205029 70.89815892639396
14.079309026499875 58.397506270978354 64.23193953716039
7.404853930499833 59.79826920276195 63.65119885690302
8.996311477451247 56.651866293206304 71.17463409744482
1.3714310439036907 55.70025269680355 73.46804878848258
1.4377490455211124 58.61849088417703 66.33647974311482
-5.2056431002931625 57.30512615592781 62.871383723458976
-4.739872440286522 55.8079381999046 69.21559182680139
-10.147854989481022 52.777653175309595 70.43675622491776
-11.124197902695972 53.780125150469566 65.38993706505556
-17.566422322689363 48.6205461462454 68.84496112022764
-16.169404955189176 46.6755924240979 74.59469552569749
-22.838300181323643 40.31584913252176 74.73891392199658
-24.13645269800681 44.06119912993574 68.3312099822931
-20.224728705250737 32.86011595898933 84.16501836454437
-13.616252080930973 32.79168350936032 88.79951163657074
-17.315377160288442 24.529470912517475 90.64667623710885
-24.346374216024238 25.1033676547678 85.89260362720971
-23.453952247597407 17.124705505907826 88.6213684066491
-15.1827739430449 16.506511131644203 93.61829543972685
-17.145685081764213 9.621387245017818 93.08193684365901
-24.100826451408107 8.65947670844921 88.70942223905887
-23.251323975258813 0.9576525246895216 88.43261291782687
-16.83575128058531 2.3840430846661 92.89194493064794
-15.90092685012953 -7.164350061956876 91.2231499123676
-23.37591011117943 -6.610973868624651 86.42793619230422
-23.559246149581632 -23.964415988066058 79.04397215991862
-20.434409530601787 -17.93136894353377 84.07437173419453
-14.183818506841234 -25.096211341101103 84.246252826397
-17.888379553225803 -28.08987347515151 79.29782229267614
-11.130313304333438 -33.24748586721461 76.90482686070655
-10.69111481579796 -29.585892962245126 81.79949083394996
-4.519734027961739 -32.637586333354385 80.03835966496283
-5.124561618097669 -36.44734112592724 74.70585546873751
1.7341117040753602 -35.59622669368933 77.4230396927296
1.6843935493774147 -30.720294716905748 83.56943351360242
8.658352496597018 -32.750817620427995 81.53865678144818
7.933009989156723 -37.18900497521601 75.84801195090972
14.377723379069712 -36.64716517163789 76.39429843729437
14.884168167322823 -31.96650837652499 81.93049394369683
19.858916667514563 -33.14951137909622 79.36256535165697
20.414364492745122 -37.33300918065205 74.37206142938535
24.939820730928027 -27.90465475787587 82.07684066129016
24.382448674646493 -21.44146391977714 87.26298053998889
30.771670227595568 -19.055096929312953 85.18953676200411
30.162775909059743 -28.26195503486365 78.90572966039818
33.7491982243127 -30.012855037618245 74.96191273086487
35.73333722645996 -23.14759197688749 78.99540945594325
42.692740041997034 -19.292308224413027 75.21274802766409
38.36938320201901 -29.051396430172986 71.78253699429487
41.93389334176987 -31.639466301921512 65.10052590940857
43.27513859222072 -26.595209563195642 68.87658103391412
49.34710836854937 -19.59061596156207 66.3162085183162
46.88712497341655 -27.562129530327688 62.90645781402543
48.83073028838125 -11.098415705763525 73.39328126084106
44.725711411223365 -9.476042444443118 79.60664145388255
47.547595405031196 -3.2516456407212733 79.13358250896891
52.044045891532946 -3.765776858897021 72.88257666637506
53.313831061156755 11.947865937453177 73.25068254747403
49.17413207123046 15.016316276285481 78.43956448573154
48.25164824338763 20.227421465103895 78.56831979891287
53.19609819144725 17.78095098471922 72.11915995356154
47.75712984163649 43.874437691566925 56.56351422929092
48.64128819128618 37.9031568703957 63.366186692688046
43.44069278571294 44.56971406315752 62.221952108081
43.05004341439179 48.06494973740342 55.544162907114874
38.858803035127785 47.61473144260512 62.338870169347786
40.108408677492314 40.58678617544289 71.19873208920737
34.46485452963944 48.09975631419475 66.2825581347362
30.412684547513916 45.390838318581515 74.04368202847762
24.331108723193815 47.17541507960785 76.83103802468773
16.974761529496014 48.82225124424615 78.69685246516144
7.545208343911131 52.822620052775775 77.74936417569869
9.357298604212613 44.53025748869476 85.69704682525487
-0.8754756431460073 43.4902468898318 86.13017761086766
1.120007192923989 51.36790361196556 79.56998593210625
-5.827511798385132 52.33319009969312 75.38974549459911
-4.407054204873045 49.389384886131666 80.33438159159955
-11.68486238216289 43.59091519871081 81.14941046982479
-12.290130232247883 49.739536061843324 73.9899110793909
-6.578255288345499 35.3550604808996 90.3353370825924
0.41054491720458586 34.61175471226837 92.79504724796972
-1.3453572212618994 28.146318153701166 95.4710652561598
-9.163868814910792 27.235872246242995 93.63082124692438
-10.950047670026525 21.379611193020253 94.73066483289135
-3.098062193919226 21.217521868571538 96.89066070075911
-3.251169866196733 15.168374613087206 97.63087842161792
-8.649020071827135 17.100551071271404 96.16138045310738
-10.34881508893245 -26.0888166697508 85.34995642860358
-9.237903234311624 -18.556785741664548 89.85708800543854
-3.3888362543484476 -23.382121056707078 89.50454341017584
-5.1640254171715725 -27.474470104451804 85.54183206474552
1.3328602321136103 -25.32204338511714 88.70256921285288
-0.014274962813956904 -18.000041188099637 92.87159524846237
7.656566772230526 -19.751909115615327 92.13934973759248
6.536439068135447 -27.670062500260443 86.91295296830907
12.075406592373234 -27.02057370361696 86.84220350959859
15.052069769947192 -19.044124010566467 91.6840938002015
20.660585718917265 -18.47548519153007 90.69980671322317
18.84092286056064 -26.60052615411111 85.62798780821727
38.54788234579244 -11.771459098682952 84.06052313116425
32.8661723395503 -8.646212684566592 90.01310070518628
35.54167726072309 -2.445627511581508 90.88676860214366
42.00730515833387 -2.76924679446093 85.29829725565747
43.66796767913656 12.717091306441223 84.90999840475297
36.18889991818746 18.95790703690341 90.72748402466853
43.698321658825094 19.630340009535438 83.9652187448665
44.48099209505342 24.15900293626232 81.86824576502036
38.74822482877013 25.65601161153016 86.68695731935792
35.05965523584813 34.363295378693664 83.06653795973655
42.564243679061875 30.21067072975716 79.86534441670102
53.55396204119309 24.522996026267926 68.48334086697551
48.60181525682691 24.605729911776304 76.16661984844838
47.6584491619567 31.67687433705508 72.00049517822949
51.55438769185986 30.969139871918543 67.00217671247016
7.0090284166997066 36.32699475600632 92.28527479054664
12.940772365896336 36.20734477447991 92.34519895504185
14.916612455129592 29.03426876634326 96.04827931026846
6.454358176714326 28.41991922725372 96.36803161115928
5.969358945348876 21.94508027578493 98.15524348280178
14.225127683744539 21.875371689052564 98.4396145372518
13.968721770650067 15.947447732026186 99.49460340305909
5.074736632693035 15.284579682919063 98.87734201510335
6.438456837255842 -1.8154016720127615 98.94676215729422
14.573253321857035 -0.08968503029992547 99.52086877925498
12.586936041766332 -8.608505805178188 96.95487752259773
5.02623682943247 -10.614598798702731 96.51058339352711
-9.33902941449493 -2.2893387453366785 95.84804488009048
-2.2391576890117832 0.6488988670211828 98.134999206904
-2.4769858768918773 -7.947866117252444 96.28837598248498
-9.167883743125891 -8.504488132433432 94.4484057322624
25.831224663873144 -11.548704650372464 92.22223339942481
19.027377961141784 -11.497387436944107 94.8403957692502
21.524711721406327 -2.7916356770920903 97.49089269663256
29.383657700160953 -3.231626692921825 94.41416446074342
29.235547707438855 27.291984042724323 92.1972808369666
21.883450781338347 27.483665847852606 95.83648066875013
19.459480411825822 35.536776929088546 90.82087416537166
26.66994052628823 39.26527037215425 84.11682137447839
-8.877953947185762 10.86586460789471 96.41866686952146
-0.015272672407064647 10.34937489805601 98.47241520991983
-3.4647270254111504 5.771560691186538 98.03582745141959
-9.953206491344282 4.203114236942303 96.24015046176179
6.13235302372448 10.300391517281671 99.35935113720014
12.699808793918972 9.648228168175027 99.89913441211438
12.20056187405919 3.9054820664750105 99.98418825264349
4.830756461241087 5.461237175460323 99.3145109181639
29.055540238382264 2.3693761414207026 96.15243565713658
20.398661474664827 5.062635308751032 99.44932711382765
20.41488303215622 10.979077893459305 99.66512269052154
28.452577482022846 9.124591109907715 96.87090320722046
44.09870368205109 4.2943164465882715 84.53862254231855
36.60134844275664 3.68862990909446 91.45864417812435
36.87614887498447 10.619571573294252 91.23280404124615
53.45289560666504 1.961202811250276 72.55801709633342
49.620141153028854 1.630513193737995 77.96480485083212
49.917723494516466 7.830916595617495 78.00517188053715
55.04627563054811 7.016494283269993 70.6692081338688
61.01506744514346 1.1918723053686646 58.961235212406876
57.424366056568395 1.3559939509403653 65.83881545916549
58.91335705262003 6.240230509131679 63.86272467949102
61.50074732811433 5.262570426640141 58.72584178827652
29.52626910345734 16.049284565376116 95.63334598076946
21.926572157809375 15.745611018918542 98.66160424196829
22.945903548322946 22.058129031746965 97.154598930002
29.527730836403027 20.85169073382987 94.95140918678234
-6.772517053253143 -46.417000756016904 40.209920681706606
-3.8051631791676215 -46.060999877739654 49.951274657539734
1.9764911030427097 -47.56258847855811 47.24814213713007
5.807273169214674 -48.56194557304502 39.91739850241169
5.996514667617817 57.42718621638924 27.988157323309515
4.275442433382983 59.07993441395472 34.74350152027339
-2.166038867903005 57.85867419571052 35.49878234427691
-6.270208242832448 55.13076892288958 27.831724189515782
3 3 9 123
3 123 2 3
3 9 10 123
3 3 6 9
3 2 1 3
3 123 124 2
3 10 125 123
3 9 8 10
3 6 8 9
3 6 7 8
3 3 5 6
3 1 5 3
3 1 505 5
3 2 122 1
3 124 209 2
3 123 125 124
3 125 213 124
3 10 126 125
3 8 11 10
3 7 13 8
3 6 4 7
3 5 4 6
3 1 119 505
3 122 119 1
3 122 121 119
3 2 209 122
3 209 121 122
3 209 210 121
3 124 212 209
3 213 212 124
3 213 214 212
3 125 127 213
3 126 127 125
3 126 128 127
3 10 17 126
3 11 17 10
3 11 16 17
3 8 13 11
3 13 14 11
3 7 12 13
3 119 504 505
3 121 120 119
3 210 208 121
3 209 211 210
3 212 211 209
3 212 299 211
3 214 299 212
3 214 302 299
3 213 215 214
3 127 215 213
3 127 128 215
3 128 131 215
3 126 129 128
3 17 129 126
3 17 18 129
3 16 18 17
3 16 19 18
3 11 14 16
3 14 15 16
3 13 15 14
3 13 12 15
3 504 502 505
3 119 204 504
3 120 204 119
3 120 203 204
3 121 205 120
3 208 205 121
3 208 207 205
3 210 211 208
3 211 295 208
3 299 300 211
3 302 300 299
3 302 301 300
3 214 216 302
3 215 216 214
3 215 131 216
3 131 219 216
3 128 130 131
3 129 21 128
3 18 20 129
3 19 20 18
3 16 15 19
3 504 503 502
3 204 503 504
3 204 201 503
3 203 201 204
3 203 202 201
3 120 290 203
3 205 290 120
3 205 206 290
3 207 206 205
3 207 291 206
3 208 295 207
3 295 294 207
3 211 298 295
3 300 298 211
3 300 301 298
3 301 304 298
3 302 303 301
3 216 217 302
3 219 218 216
3 131 132 219
3 130 132 131
3 130 133 132
3 128 21 130
3 21 133 130
3 21 22 133
3 129 20 21
3 20 23 21
3 503 113 502
3 201 200 503
3 202 199 201
3 203 286 202
3 290 287 203
3 206 289 290
3 291 289 206
3 291 377 289
3 207 294 291
3 294 292 291
3 295 296 294
3 298 296 295
3 298 297 296
3 304 386 298
3 301 303 304
3 303 306 304
3 302 217 303
3 217 306 303
3 217 218 306
3 218 217 216
3 21 23 22
3 113 114 502
3 503 200 113
3 200 197 113
3 201 199 200
3 199 197 200
3 199 198 197
3 202 283 199
3 286 283 202
3 286 285 283
3 203 287 286
3 287 285 286
3 287 288 285
3 290 289 287
3 289 288 287
3 289 374 288
3 377 374 289
3 377 376 374
3 291 292 377
3 292 376 377
3 292 378 376
3 294 293 292
3 296 293 294
3 296 382 293
3 297 385 296
3 298 386 297
3 386 385 297
3 386 387 385
3 304 389 386
3 306 305 304
3 218 305 306
3 218 220 305
3 114 117 502
3 113 111 114
3 197 112 113
3 198 195 197
3 199 283 198
3 283 282 198
3 285 284 283
3 288 373 285
3 374 373 288
3 374 372 373
3 376 375 374
3 378 435 376
3 292 381 378
3 293 381 292
3 293 382 381
3 382 383 381
3 296 385 382
3 385 383 382
3 385 384 383
3 387 384 385
3 387 388 384
3 386 389 387
3 389 388 387
3 389 305 388
3 305 389 304
3 220 221 305
3 218 135 220
3 114 111 117
3 111 116 117
3 113 112 111
3 112 105 111
3 197 196 112
3 195 196 197
3 195 193 196
3 198 282 195
3 282 279 195
3 283 281 282
3 284 369 283
3 285 370 284
3 373 370 285
3 373 372 370
3 372 371 370
3 374 375 372
3 375 432 372
3 376 435 375
3 435 432 375
3 435 433 432
3 378 379 435
3 381 380 378
3 383 380 381
3 383 436 380
3 384 436 383
3 384 391 436
3 388 390 384
3 305 307 388
3 221 307 305
3 221 310 307
3 220 223 221
3 135 223 220
3 135 136 223
3 116 115 117
3 111 106 116
3 105 106 111
3 105 103 106
3 112 196 105
3 196 193 105
3 193 104 105
3 195 194 193
3 279 194 195
3 279 278 194
3 282 280 279
3 281 280 282
3 281 366 280
3 283 369 281
3 369 366 281
3 369 368 366
3 284 370 369
3 370 368 369
3 370 371 368
3 371 427 368
3 372 431 371
3 432 431 372
3 432 430 431
3 433 430 432
3 433 461 430
3 435 434 433
3 379 434 435
3 379 467 434
3 378 380 379
3 380 467 379
3 380 437 467
3 436 437 380
3 436 438 437
3 391 439 436
3 384 390 391
3 390 392 391
3 388 308 390
3 307 308 388
3 307 309 308
3 310 309 307
3 310 495 309
3 221 222 310
3 223 222 221
3 223 225 222
3 136 224 223
3 135 137 136
3 115 118 117
3 116 109 115
3 106 109 116
3 106 103 109
3 103 108 109
3 105 104 103
3 104 97 103
3 193 192 104
3 194 192 193
3 194 191 192
3 278 191 194
3 278 275 191
3 279 280 278
3 280 277 278
3 366 365 280
3 368 367 366
3 427 367 368
3 427 424 367
3 371 428 427
3 431 428 371
3 431 430 428
3 430 429 428
3 461 462 430
3 433 468 461
3 434 468 433
3 434 467 468
3 467 469 468
3 437 470 467
3 438 470 437
3 438 483 470
3 436 439 438
3 439 488 438
3 391 392 439
3 392 487 439
3 390 393 392
3 308 393 390
3 308 309 393
3 309 490 393
3 495 490 309
3 495 493 490
3 310 494 495
3 222 494 310
3 222 225 494
3 225 497 494
3 223 224 225
3 224 226 225
3 136 139 224
3 137 139 136
3 137 138 139
3 135 134 137
3 109 110 115
3 108 107 109
3 103 101 108
3 97 98 103
3 104 192 97
3 192 189 97
3 191 190 192
3 275 190 191
3 275 187 190
3 278 277 275
3 277 276 275
3 280 365 277
3 365 362 277
3 366 367 365
3 367 364 365
3 424 364 367
3 424 425 364
3 427 425 424
3 427 426 425
3 428 426 427
3 428 429 426
3 429 425 426
3 429 465 425
3 430 462 429
3 462 465 429
3 462 459 465
3 461 459 462
3 461 460 459
3 468 469 461
3 469 460 461
3 469 484 460
3 467 470 469
3 470 483 469
3 483 484 469
3 483 486 484
3 438 488 483
3 488 486 483
3 488 489 486
3 439 487 488
3 487 489 488
3 487 440 489
3 392 491 487
3 393 491 392
3 393 490 491
3 490 492 491
3 493 492 490
3 493 394 492
3 495 496 493
3 494 496 495
3 494 497 496
3 497 311 496
3 225 311 497
3 225 226 311
3 226 314 311
3 224 227 226
3 139 227 224
3 139 140 227
3 138 140 139
3 138 141 140
3 137 26 138
3 134 25 137
3 109 107 110
3 108 102 107
3 101 102 108
3 101 99 102
3 103 98 101
3 98 100 101
3 97 95 98
3 189 96 97
3 192 190 189
3 190 188 189
3 187 188 190
3 187 185 188
3 275 276 187
3 276 274 187
3 277 362 276
3 362 363 276
3 365 363 362
3 365 364 363
3 364 425 363
3 425 360 363
3 465 466 425
3 459 464 465
3 460 481 459
3 484 481 460
3 484 480 481
3 486 485 484
3 489 498 486
3 440 441 489
3 487 492 440
3 492 487 491
3 394 395 492
3 493 312 394
3 496 312 493
3 496 311 312
3 311 313 312
3 314 313 311
3 314 315 313
3 226 229 314
3 227 228 226
3 140 143 227
3 141 142 140
3 138 29 141
3 26 29 138
3 26 28 29
3 137 25 26
3 25 24 26
3 101 100 99
3 98 95 100
3 95 94 100
3 97 96 95
3 96 94 95
3 96 93 94
3 189 93 96
3 189 188 93
3 188 92 93
3 185 92 188
3 185 89 92
3 187 186 185
3 274 271 187
3 276 273 274
3 363 273 276
3 363 361 273
3 360 361 363
3 360 358 361
3 425 466 360
3 466 463 360
3 465 463 466
3 465 464 463
3 464 478 463
3 459 482 464
3 481 482 459
3 481 480 482
3 480 479 482
3 484 485 480
3 485 457 480
3 486 499 485
3 498 499 486
3 498 500 499
3 489 441 498
3 441 501 498
3 440 442 441
3 492 395 440
3 395 442 440
3 395 396 442
3 394 397 395
3 312 397 394
3 312 313 397
3 313 447 397
3 315 316 313
3 314 229 315
3 229 318 315
3 226 228 229
3 228 230 229
3 227 143 228
3 143 144 228
3 140 142 143
3 142 144 143
3 142 145 144
3 141 33 142
3 29 30 141
3 28 30 29
3 28 31 30
3 26 27 28
3 24 27 26
3 93 91 94
3 92 91 93
3 92 90 91
3 89 90 92
3 89 87 90
3 185 184 89
3 186 184 185
3 186 183 184
3 187 271 186
3 271 183 186
3 271 270 183
3 274 273 271
3 273 272 271
3 361 272 273
3 361 358 272
3 358 269 272
3 360 359 358
3 463 359 360
3 463 478 359
3 478 356 359
3 464 477 478
3 482 477 464
3 482 476 477
3 479 476 482
3 479 458 476
3 480 458 479
3 480 457 458
3 457 455 458
3 485 499 457
3 499 456 457
3 500 456 499
3 500 453 456
3 498 501 500
3 501 471 500
3 441 471 501
3 441 444 471
3 442 444 441
3 442 443 444
3 396 443 442
3 396 448 443
3 395 397 396
3 397 448 396
3 397 447 448
3 447 449 448
3 313 316 447
3 316 317 447
3 315 317 316
3 315 318 317
3 318 320 317
3 229 230 318
3 230 320 318
3 230 233 320
3 228 231 230
3 144 231 228
3 144 233 231
3 145 147 144
3 142 34 145
3 33 34 142
3 33 32 34
3 141 30 33
3 30 31 33
3 31 32 33
3 89 88 87
3 184 88 89
3 184 181 88
3 183 182 184
3 270 182 183
3 270 267 182
3 271 272 270
3 272 269 270
3 269 268 270
3 358 357 269
3 359 357 358
3 359 356 357
3 356 354 357
3 478 475 356
3 477 475 478
3 477 476 475
3 476 422 475
3 458 422 476
3 458 421 422
3 455 421 458
3 455 418 421
3 457 456 455
3 456 454 455
3 453 454 456
3 453 451 454
3 500 472 453
3 471 472 500
3 471 473 472
3 444 445 471
3 443 446 444
3 448 446 443
3 448 449 446
3 449 403 446
3 447 450 449
3 317 450 447
3 317 399 450
3 320 399 317
3 320 398 399
3 233 319 320
3 230 231 233
3 144 232 233
3 147 232 144
3 147 148 232
3 145 146 147
3 32 35 34
3 88 86 87
3 181 85 88
3 184 182 181
3 182 180 181
3 267 179 182
3 270 268 267
3 268 266 267
3 269 357 268
3 357 354 268
3 354 265 268
3 356 355 354
3 475 355 356
3 475 423 355
3 422 423 475
3 422 421 423
3 421 420 423
3 418 419 421
3 455 454 418
3 454 417 418
3 451 417 454
3 451 410 417
3 453 452 451
3 472 473 453
3 473 452 453
3 471 474 473
3 445 474 471
3 444 446 445
3 446 403 445
3 449 399 403
3 399 449 450
3 398 400 399
3 320 321 398
3 319 321 320
3 319 322 321
3 233 234 319
3 232 234 233
3 232 235 234
3 148 235 232
3 148 237 235
3 147 146 148
3 146 149 148
3 35 37 34
3 88 85 86
3 85 83 86
3 181 180 85
3 180 84 85
3 182 179 180
3 179 178 180
3 267 266 179
3 266 178 179
3 266 263 178
3 268 265 266
3 265 264 266
3 354 353 265
3 355 352 354
3 423 420 355
3 420 352 355
3 420 419 352
3 419 420 421
3 418 416 419
3 417 416 418
3 417 410 416
3 410 414 416
3 451 409 410
3 452 409 451
3 399 400 403
3 400 402 403
3 398 401 400
3 321 401 398
3 321 324 401
3 322 324 321
3 322 323 324
3 319 234 322
3 234 323 322
3 234 237 323
3 237 234 235
3 148 236 237
3 149 236 148
3 149 151 236
3 146 38 149
3 37 146 34
3 35 36 37
3 85 84 83
3 84 81 83
3 180 177 84
3 178 177 180
3 178 175 177
3 263 261 178
3 266 264 263
3 264 348 263
3 265 353 264
3 353 350 264
3 354 352 353
3 352 350 353
3 352 351 350
3 419 351 352
3 419 416 351
3 416 414 351
3 414 350 351
3 414 348 350
3 410 413 414
3 409 411 410
3 402 404 403
3 400 401 402
3 401 328 402
3 324 327 401
3 323 326 324
3 237 238 323
3 236 239 237
3 151 152 236
3 149 38 151
3 38 150 151
3 146 37 38
3 37 36 38
3 36 39 38
3 81 82 83
3 84 176 81
3 177 176 84
3 177 175 176
3 175 174 176
3 178 262 175
3 261 262 178
3 261 260 262
3 348 261 263
3 348 349 261
3 264 350 348
3 414 347 348
3 413 412 414
3 410 411 413
3 411 412 413
3 411 340 412
3 409 408 411
3 404 405 403
3 402 329 404
3 328 329 402
3 328 327 329
3 327 328 401
3 324 325 327
3 326 325 324
3 326 241 325
3 323 238 326
3 238 240 326
3 237 239 238
3 239 240 238
3 239 155 240
3 236 152 239
3 152 155 239
3 152 154 155
3 151 150 152
3 150 153 152
3 38 39 150
3 39 41 150
3 82 77 83
3 81 80 82
3 176 80 81
3 176 173 80
3 174 173 176
3 174 171 173
3 175 262 174
3 262 259 174
3 260 259 262
3 260 257 259
3 261 349 260
3 349 346 260
3 348 346 349
3 348 347 346
3 347 415 346
3 414 415 347
3 414 412 415
3 412 344 415
3 340 343 412
3 411 408 340
3 408 339 340
3 409 407 408
3 404 332 405
3 329 332 404
3 329 331 332
3 327 330 329
3 325 330 327
3 325 241 330
3 241 245 330
3 326 240 241
3 240 243 241
3 155 156 240
3 154 156 155
3 154 157 156
3 152 153 154
3 153 49 154
3 150 42 153
3 41 42 150
3 41 40 42
3 39 40 41
3 77 78 83
3 82 79 77
3 80 79 82
3 80 74 79
3 173 73 80
3 171 172 173
3 174 259 171
3 259 258 171
3 257 258 259
3 257 256 258
3 260 346 257
3 346 345 257
3 415 344 346
3 344 345 346
3 344 343 345
3 343 344 412
3 340 341 343
3 339 341 340
3 339 338 341
3 408 407 339
3 407 336 339
3 332 335 405
3 331 333 332
3 329 330 331
3 330 245 331
3 245 333 331
3 245 246 333
3 241 244 245
3 243 242 241
3 240 156 243
3 156 57 243
3 157 57 156
3 157 56 57
3 154 49 157
3 49 50 157
3 153 42 49
3 42 48 49
3 40 43 42
3 77 76 78
3 79 76 77
3 79 74 76
3 74 69 76
3 80 73 74
3 73 72 74
3 173 172 73
3 172 72 73
3 172 170 72
3 171 170 172
3 171 258 170
3 258 255 170
3 256 255 258
3 256 254 255
3 257 345 256
3 345 342 256
3 343 342 345
3 343 341 342
3 341 253 342
3 338 252 341
3 339 337 338
3 336 337 339
3 336 335 337
3 335 406 405
3 332 333 335
3 333 334 335
3 246 249 333
3 245 244 246
3 244 247 246
3 241 242 244
3 242 243 244
3 243 159 244
3 57 158 243
3 56 58 57
3 157 50 56
3 50 53 56
3 49 48 50
3 48 51 50
3 42 43 48
3 43 45 48
3 76 75 78
3 69 75 76
3 69 70 75
3 74 68 69
3 72 71 74
3 170 169 72
3 255 168 170
3 254 167 255
3 256 342 254
3 342 253 254
3 253 251 254
3 341 252 253
3 252 251 253
3 252 250 251
3 338 250 252
3 338 337 250
3 337 249 250
3 335 334 337
3 336 407 335
3 407 406 335
3 249 334 333
3 249 337 334
3 246 248 249
3 247 248 246
3 247 160 248
3 244 159 247
3 159 160 247
3 159 158 160
3 158 159 243
3 57 58 158
3 58 161 158
3 56 59 58
3 53 54 56
3 50 51 53
3 51 52 53
3 48 46 51
3 45 46 48
3 45 44 46
3 43 44 45
3 69 68 70
3 68 67 70
3 74 71 68
3 71 62 68
3 72 66 71
3 169 65 72
3 170 168 169
3 168 167 169
3 167 168 255
3 254 164 167
3 251 164 254
3 251 163 164
3 250 163 251
3 250 160 163
3 249 248 250
3 160 250 248
3 158 161 160
3 161 162 160
3 58 506 161
3 59 506 58
3 59 54 506
3 54 59 56
3 53 52 54
3 52 55 54
3 51 46 52
3 46 47 52
3 44 47 46
3 68 62 67
3 62 60 67
3 71 66 62
3 66 61 62
3 72 65 66
3 65 64 66
3 169 64 65
3 169 166 64
3 167 166 169
3 167 165 166
3 164 165 167
3 164 163 165
3 163 162 165
3 162 163 160
3 161 507 162
3 506 507 161
3 506 508 507
3 54 55 506
3 62 61 60
3 66 63 61
3 64 63 66
3 64 509 63
3 166 508 64
3 508 162 507
3 508 165 162
3 508 166 165
3 506 509 508
3 64 508 509
3 505 4 5
3 505 502 4
3 4 12 7
3 19 23 20
3 219 135 218
3 219 132 135
3 132 134 135
3 132 25 134
3 132 133 25
3 133 22 25
3 22 24 25
3 22 23 24
3 117 118 502
3 100 94 99
3 34 146 145
3 473 409 452
3 473 407 409
3 473 474 407
3 474 406 407
3 474 405 406
3 474 445 405
3 445 403 405
3 36 40 39
3 40 44 43
3 52 47 55
3 55 509 506
3 102 99 107
3 83 78 86
3 61 55 60
3 63 509 61
3 502 118 4
3 55 61 509
